<svg width="63" height="50" viewBox="0 0 63 50" fill="none" xmlns="http://www.w3.org/2000/svg">
<path d="M11.0908 4.06447H4.1598C3.76367 4.06429 3.37139 4.13991 3.00542 4.28698C2.63944 4.43406 2.30695 4.64971 2.02698 4.9216C1.747 5.19349 1.52503 5.51627 1.37378 5.87148C1.22253 6.22669 1.14496 6.60735 1.14551 6.99168C1.14924 15.6301 1.15622 30.5033 1.15902 36.7739C1.15895 37.1579 1.23694 37.5382 1.38852 37.8931C1.54009 38.2479 1.76228 38.5702 2.04238 38.8416C2.32247 39.113 2.65497 39.3282 3.02086 39.4748C3.38674 39.6214 3.77883 39.6966 4.1747 39.6961C15.2823 39.6916 34.969 39.6816 45.9151 39.678C46.3111 39.6781 46.7033 39.6024 47.0691 39.4553C47.435 39.3082 47.7674 39.0926 48.0473 38.8208C48.3272 38.5489 48.5491 38.2263 48.7004 37.8712C48.8517 37.5161 48.9293 37.1355 48.9289 36.7513C48.9252 27.516 48.9196 15.2262 48.9159 6.97271C48.9159 6.58855 48.8379 6.20815 48.6863 5.85327C48.5347 5.49838 48.3125 5.17597 48.0324 4.90448C47.7523 4.63299 47.4197 4.41774 47.0538 4.27104C46.6878 4.12435 46.2957 4.04909 45.8997 4.04956H39.8139" fill="white"/>
<path d="M29.7371 2.97205L21.0835 2.97521C19.6455 2.97521 19.6432 5.14385 21.0835 5.14385L29.7352 5.14068C31.1737 5.14068 31.176 2.97205 29.7352 2.97205H29.7371Z" fill="#211715"/>
<path d="M13.406 13.2269L11.0991 13.231C10.7296 13.2358 10.3761 13.378 10.1114 13.6281C9.84952 13.8823 9.70239 14.227 9.70239 14.5864C9.70239 14.9458 9.84952 15.2905 10.1114 15.5447C10.3765 15.7942 10.7298 15.9362 11.0991 15.9418L13.406 15.9377C13.7755 15.9329 14.129 15.7907 14.3937 15.5406C14.6556 15.2864 14.8028 14.9417 14.8028 14.5823C14.8028 14.2229 14.6556 13.8782 14.3937 13.6241C14.1286 13.3745 13.7754 13.2325 13.406 13.2269Z" fill="#3D8DCC"/>
<path d="M22.0262 13.2269L19.7192 13.231C19.3497 13.2358 18.9962 13.378 18.7315 13.6281C18.4696 13.8823 18.3225 14.227 18.3225 14.5864C18.3225 14.9458 18.4696 15.2905 18.7315 15.5447C18.9967 15.7942 19.3499 15.9362 19.7192 15.9418L22.0262 15.9377C22.3956 15.9329 22.7491 15.7907 23.0138 15.5406C23.2757 15.2864 23.4229 14.9417 23.4229 14.5823C23.4229 14.2229 23.2757 13.8782 23.0138 13.6241C22.7487 13.3745 22.3955 13.2325 22.0262 13.2269Z" fill="#211715"/>
<path d="M30.646 13.2269L28.3391 13.231C27.9696 13.2358 27.6161 13.378 27.3514 13.6281C27.0895 13.8823 26.9424 14.227 26.9424 14.5864C26.9424 14.9458 27.0895 15.2905 27.3514 15.5447C27.6165 15.7942 27.9698 15.9362 28.3391 15.9418L30.646 15.9377C31.0155 15.9329 31.369 15.7907 31.6337 15.5406C31.8956 15.2864 32.0427 14.9417 32.0427 14.5823C32.0427 14.2229 31.8956 13.8782 31.6337 13.6241C31.3686 13.3745 31.0154 13.2325 30.646 13.2269Z" fill="#211715"/>
<path d="M39.2661 13.2269L36.9597 13.231C36.59 13.2357 36.2363 13.3779 35.9715 13.6281C35.7096 13.8823 35.5625 14.227 35.5625 14.5864C35.5625 14.9458 35.7096 15.2905 35.9715 15.5447C36.2368 15.7942 36.5902 15.9362 36.9597 15.9418L39.2661 15.9377C39.6356 15.9329 39.9891 15.7907 40.2538 15.5406C40.5157 15.2864 40.6629 14.9417 40.6629 14.5823C40.6629 14.2229 40.5157 13.8782 40.2538 13.6241C39.9887 13.3745 39.6355 13.2325 39.2661 13.2269Z" fill="#211715"/>
<path d="M13.406 21.2758L11.0991 21.2798C10.7296 21.2843 10.376 21.4263 10.1114 21.6765C9.98166 21.8024 9.87873 21.9518 9.80851 22.1163C9.73829 22.2807 9.70215 22.457 9.70215 22.635C9.70215 22.813 9.73829 22.9893 9.80851 23.1537C9.87873 23.3182 9.98166 23.4676 10.1114 23.5935C10.3765 23.843 10.7298 23.985 11.0991 23.9906L13.406 23.9866C13.7755 23.9817 14.129 23.8396 14.3937 23.5894C14.5235 23.4636 14.6264 23.3141 14.6966 23.1497C14.7668 22.9852 14.803 22.8089 14.803 22.6309C14.803 22.4529 14.7668 22.2766 14.6966 22.1122C14.6264 21.9477 14.5235 21.7983 14.3937 21.6724C14.1287 21.4228 13.7753 21.2809 13.406 21.2758Z" fill="#3D8DCC"/>
<path d="M22.0261 21.2758L19.7192 21.2798C19.3497 21.2843 18.9961 21.4263 18.7315 21.6765C18.6018 21.8024 18.4989 21.9518 18.4286 22.1163C18.3584 22.2807 18.3223 22.457 18.3223 22.635C18.3223 22.813 18.3584 22.9893 18.4286 23.1537C18.4989 23.3182 18.6018 23.4676 18.7315 23.5935C18.9967 23.843 19.3499 23.985 19.7192 23.9906L22.0261 23.9866C22.3956 23.9817 22.7491 23.8396 23.0138 23.5894C23.1436 23.4636 23.2465 23.3141 23.3167 23.1497C23.3869 22.9852 23.4231 22.8089 23.4231 22.6309C23.4231 22.4529 23.3869 22.2766 23.3167 22.1122C23.2465 21.9477 23.1436 21.7983 23.0138 21.6724C22.7488 21.4228 22.3955 21.2809 22.0261 21.2758Z" fill="#211715"/>
<path d="M30.646 21.2758L28.3391 21.2798C27.9696 21.2843 27.616 21.4263 27.3514 21.6765C27.2216 21.8024 27.1187 21.9518 27.0485 22.1163C26.9783 22.2807 26.9421 22.457 26.9421 22.635C26.9421 22.813 26.9783 22.9893 27.0485 23.1537C27.1187 23.3182 27.2216 23.4676 27.3514 23.5935C27.6165 23.843 27.9698 23.985 28.3391 23.9906L30.646 23.9866C31.0155 23.9817 31.369 23.8396 31.6337 23.5894C31.7635 23.4636 31.8664 23.3141 31.9366 23.1497C32.0068 22.9852 32.043 22.8089 32.043 22.6309C32.043 22.4529 32.0068 22.2766 31.9366 22.1122C31.8664 21.9477 31.7635 21.7983 31.6337 21.6724C31.3687 21.4228 31.0153 21.2809 30.646 21.2758Z" fill="#211715"/>
<path d="M39.2661 21.2758L36.9597 21.2798C36.5901 21.2844 36.2364 21.4264 35.9715 21.6765C35.8418 21.8024 35.7388 21.9518 35.6686 22.1163C35.5984 22.2807 35.5623 22.457 35.5623 22.635C35.5623 22.813 35.5984 22.9893 35.6686 23.1537C35.7388 23.3182 35.8418 23.4676 35.9715 23.5935C36.2368 23.843 36.5902 23.9851 36.9597 23.9906L39.2661 23.9866C39.6356 23.9817 39.9891 23.8396 40.2538 23.5894C40.3836 23.4636 40.4865 23.3141 40.5567 23.1497C40.6269 22.9852 40.6631 22.8089 40.6631 22.6309C40.6631 22.4529 40.6269 22.2766 40.5567 22.1122C40.4865 21.9477 40.3836 21.7983 40.2538 21.6724C39.9888 21.4228 39.6355 21.2809 39.2661 21.2758Z" fill="#211715"/>
<path d="M13.406 29.3241L11.0991 29.3282C10.7296 29.333 10.3761 29.4752 10.1114 29.7253C9.98166 29.8512 9.87873 30.0006 9.80851 30.165C9.73829 30.3295 9.70215 30.5058 9.70215 30.6838C9.70215 30.8618 9.73829 31.0381 9.80851 31.2025C9.87873 31.367 9.98166 31.5164 10.1114 31.6423C10.3765 31.8919 10.7298 32.0338 11.0991 32.039L13.406 32.0349C13.7755 32.0304 14.1291 31.8884 14.3937 31.6382C14.5235 31.5124 14.6264 31.3629 14.6966 31.1985C14.7668 31.034 14.803 30.8577 14.803 30.6797C14.803 30.5017 14.7668 30.3254 14.6966 30.161C14.6264 29.9965 14.5235 29.8471 14.3937 29.7212C14.1286 29.4717 13.7754 29.3297 13.406 29.3241Z" fill="#3D8DCC"/>
<path d="M22.0261 29.3241L19.7192 29.3282C19.3497 29.333 18.9962 29.4752 18.7315 29.7253C18.6018 29.8512 18.4989 30.0006 18.4286 30.165C18.3584 30.3295 18.3223 30.5058 18.3223 30.6838C18.3223 30.8618 18.3584 31.0381 18.4286 31.2025C18.4989 31.367 18.6018 31.5164 18.7315 31.6423C18.9966 31.8919 19.3499 32.0338 19.7192 32.039L22.0261 32.0349C22.3956 32.0304 22.7492 31.8884 23.0138 31.6382C23.1436 31.5124 23.2465 31.3629 23.3167 31.1985C23.3869 31.034 23.4231 30.8577 23.4231 30.6797C23.4231 30.5017 23.3869 30.3254 23.3167 30.161C23.2465 29.9965 23.1436 29.8471 23.0138 29.7212C22.7487 29.4717 22.3955 29.3297 22.0261 29.3241Z" fill="#211715"/>
<path d="M30.646 29.3241L28.3391 29.3282C27.9696 29.333 27.6161 29.4752 27.3514 29.7253C27.2216 29.8512 27.1187 30.0006 27.0485 30.165C26.9783 30.3295 26.9421 30.5058 26.9421 30.6838C26.9421 30.8618 26.9783 31.0381 27.0485 31.2025C27.1187 31.367 27.2216 31.5164 27.3514 31.6423C27.6164 31.8919 27.9698 32.0338 28.3391 32.039L30.646 32.0349C31.0155 32.0304 31.3691 31.8884 31.6337 31.6382C31.7635 31.5124 31.8664 31.3629 31.9366 31.1985C32.0068 31.034 32.043 30.8577 32.043 30.6797C32.043 30.5017 32.0068 30.3254 31.9366 30.161C31.8664 29.9965 31.7635 29.8471 31.6337 29.7212C31.3686 29.4717 31.0153 29.3297 30.646 29.3241Z" fill="#211715"/>
<path d="M39.2661 29.3241L36.9597 29.3282C36.59 29.3329 36.2363 29.475 35.9715 29.7253C35.8418 29.8512 35.7388 30.0006 35.6686 30.165C35.5984 30.3295 35.5623 30.5058 35.5623 30.6838C35.5623 30.8618 35.5984 31.0381 35.6686 31.2025C35.7388 31.367 35.8418 31.5164 35.9715 31.6423C36.2368 31.8919 36.5902 32.0337 36.9597 32.039L39.2661 32.0349C39.6356 32.0304 39.9892 31.8884 40.2538 31.6382C40.3836 31.5124 40.4865 31.3629 40.5567 31.1985C40.6269 31.034 40.6631 30.8577 40.6631 30.6797C40.6631 30.5017 40.6269 30.3254 40.5567 30.161C40.4865 29.9965 40.3836 29.8471 40.2538 29.7212C39.9887 29.4717 39.6355 29.3297 39.2661 29.3241Z" fill="#211715"/>
<path d="M11.0907 2.9802C9.00173 2.9802 6.91258 2.9802 4.82327 2.9802C3.74059 2.9802 2.71658 3.07417 1.80293 3.70308C1.29302 4.05301 0.870022 4.50894 0.564779 5.03762C0.259536 5.5663 0.0797427 6.1544 0.0385066 6.75905C-0.0420544 7.75617 0.0287275 8.78447 0.0291932 9.78611V13.0291C0.0291932 15.3694 0.0302797 17.7096 0.0324528 20.0496C0.0343155 24.4505 0.036799 28.8516 0.0399035 33.253V35.7601C0.0399035 36.754 0.029193 37.7132 0.509299 38.6263C0.785801 39.1401 1.17387 39.5896 1.64675 39.9438C2.11963 40.298 2.66607 40.5484 3.24837 40.6779C4.28186 40.8174 5.3276 40.8512 6.36837 40.7787L35.3214 40.7683L42.1486 40.7651H45.1247C46.2815 40.7651 47.366 40.691 48.3318 39.9993C48.8361 39.6403 49.2514 39.1766 49.5474 38.6419C49.8433 38.1072 50.0124 37.5152 50.0422 36.909C50.1111 35.6973 50.0455 34.4648 50.045 33.2517C50.045 30.6186 50.0438 27.9856 50.0413 25.3529C50.0391 20.1782 50.0369 15.0036 50.0348 9.82903C50.0894 8.72461 50.0765 7.61802 49.9961 6.51508C49.9227 5.91504 49.7118 5.33856 49.3787 4.82796C49.0457 4.31736 48.599 3.8856 48.0715 3.56438C47.209 3.10339 46.2268 2.89601 45.2449 2.96755H42.3922H39.8138C38.3753 2.96755 38.373 5.13619 39.8138 5.13619C41.5523 5.13619 43.2908 5.13619 45.0293 5.13619C45.7431 5.13619 46.4687 5.06526 47.0698 5.51751C47.8266 6.08587 47.8 6.89821 47.8005 7.74081C47.8023 12.4546 47.8044 17.1684 47.8065 21.8821C47.8065 24.4399 47.8076 26.9976 47.8098 29.555C47.8098 31.9523 47.8741 34.3581 47.813 36.7545C47.8106 37.1358 47.6875 37.5072 47.4606 37.8186C47.2337 38.13 46.9138 38.3663 46.5441 38.4957C45.7809 38.7582 44.7634 38.5974 43.9601 38.5978H37.9166L10.1529 38.61C8.20497 38.61 6.25614 38.6245 4.30777 38.6127C3.91922 38.6317 3.53362 38.5382 3.19991 38.3442C2.8662 38.1502 2.59943 37.8644 2.43345 37.523C2.13915 36.8756 2.27838 36.0149 2.27792 35.3209C2.27481 31.4743 2.27233 27.6275 2.27047 23.7806C2.26798 19.3638 2.26596 14.9472 2.26441 10.5307V7.65633C2.26441 6.8467 2.26907 6.07503 2.99225 5.53287C3.63348 5.04989 4.43583 5.15019 5.19814 5.15019H8.28553H11.0917C12.5297 5.15019 12.5324 2.98156 11.0917 2.98156L11.0907 2.9802Z" fill="#211715"/>
<path d="M34.1306 1.74814C34.1306 3.18667 34.1306 4.62535 34.1306 6.06418C34.1306 6.20657 34.1595 6.34757 34.2157 6.47913C34.2719 6.61068 34.3542 6.73022 34.458 6.83091C34.5617 6.9316 34.6849 7.01147 34.8205 7.06596C34.9561 7.12045 35.1015 7.1485 35.2482 7.1485C35.395 7.1485 35.5403 7.12045 35.6759 7.06596C35.8115 7.01147 35.9347 6.9316 36.0385 6.83091C36.1423 6.73022 36.2246 6.61068 36.2808 6.47913C36.3369 6.34757 36.3658 6.20657 36.3658 6.06418C36.3658 4.62565 36.3658 3.18697 36.3658 1.74814C36.3658 1.60574 36.3369 1.46474 36.2808 1.33319C36.2246 1.20163 36.1423 1.0821 36.0385 0.981408C35.9347 0.88072 35.8115 0.800849 35.6759 0.746357C35.5403 0.691865 35.395 0.663818 35.2482 0.663818C35.1015 0.663818 34.9561 0.691865 34.8205 0.746357C34.6849 0.800849 34.5617 0.88072 34.458 0.981408C34.3542 1.0821 34.2719 1.20163 34.2157 1.33319C34.1595 1.46474 34.1306 1.60574 34.1306 1.74814Z" fill="#211715"/>
<path d="M14.3486 1.74814C14.3486 3.18667 14.3494 4.62535 14.351 6.06418C14.351 6.35176 14.4687 6.62756 14.6783 6.83091C14.8879 7.03426 15.1722 7.1485 15.4686 7.1485C15.765 7.1485 16.0492 7.03426 16.2588 6.83091C16.4684 6.62756 16.5862 6.35176 16.5862 6.06418C16.5862 4.62565 16.5862 3.18697 16.5862 1.74814C16.5862 1.46056 16.4684 1.18476 16.2588 0.981408C16.0492 0.778059 15.765 0.663818 15.4686 0.663818C15.1722 0.663818 14.8879 0.778059 14.6783 0.981408C14.4687 1.18476 14.351 1.46056 14.351 1.74814H14.3486Z" fill="#211715"/>
<path d="M45.9969 19.0819C37.1566 19.0819 31.0488 25.7234 31.0488 33.4984C31.0488 42.1955 37.2888 48.185 45.9996 48.185C55.0448 48.185 60.9509 42.1395 60.9509 33.4984C60.9481 25.671 54.8055 19.0819 45.9969 19.0819Z" fill="white"/>
<path d="M45.9969 17.9976C42.4911 17.9725 39.0707 19.0465 36.2449 21.0599C33.6005 23.0011 31.6482 25.6962 30.6615 28.7676C28.7159 34.8136 30.5963 42.0803 35.8234 46.0286C40.9984 49.9371 48.8156 50.3546 54.4968 47.2114C60.3317 43.9838 62.8197 37.2199 61.8544 30.9634C61.3416 27.7733 59.8018 24.8225 57.4553 22.5331C55.1088 20.2438 52.076 18.7334 48.791 18.2181C47.8665 18.0777 46.9326 18.0037 45.9969 17.9967C44.5585 17.9899 44.5566 20.1586 45.9969 20.1654C49.0497 20.1437 52.0281 21.0786 54.4894 22.831C56.7285 24.4859 58.3753 26.7814 59.1973 29.3934C60.8439 34.5936 59.3673 40.8347 54.9653 44.2996C50.662 47.6881 43.7692 48.017 38.9383 45.4408C33.9025 42.7562 31.4932 37.0012 32.2946 31.5516C32.6754 28.7425 33.9869 26.1296 36.0315 24.1066C38.0761 22.0836 40.7431 20.7602 43.6304 20.3357C44.4134 20.2187 45.2047 20.1621 45.9969 20.1663C47.4345 20.1586 47.4377 17.9899 45.9969 17.9976Z" fill="#211715"/>
<path d="M46.0053 34.7214H51.1128C51.4092 34.7214 51.6935 34.6071 51.9031 34.4038C52.1126 34.2004 52.2304 33.9246 52.2304 33.6371C52.2304 33.3495 52.1126 33.0737 51.9031 32.8703C51.6935 32.667 51.4092 32.5527 51.1128 32.5527H46.0053C45.7089 32.5527 45.4246 32.667 45.215 32.8703C45.0054 33.0737 44.8877 33.3495 44.8877 33.6371C44.8877 33.9246 45.0054 34.2004 45.215 34.4038C45.4246 34.6071 45.7089 34.7214 46.0053 34.7214Z" fill="#211715"/>
<path d="M44.8877 26.1258C44.8877 28.6258 44.8877 31.1266 44.8877 33.6284C44.8877 33.916 45.0054 34.1918 45.215 34.3951C45.4246 34.5985 45.7089 34.7127 46.0053 34.7127C46.3017 34.7127 46.586 34.5985 46.7956 34.3951C47.0052 34.1918 47.1229 33.916 47.1229 33.6284C47.1189 31.1284 47.1189 28.6276 47.1229 26.1258C47.1229 25.8382 47.0052 25.5624 46.7956 25.3591C46.586 25.1557 46.3017 25.0415 46.0053 25.0415C45.7089 25.0415 45.4246 25.1557 45.215 25.3591C45.0054 25.5624 44.8877 25.8382 44.8877 26.1258Z" fill="#211715"/>
</svg>
