<svg width="75" height="49" viewBox="0 0 75 49" fill="none" xmlns="http://www.w3.org/2000/svg">
<path d="M1.28369 47.1028C7.81641 41.2798 14.8915 35.0466 21.1367 29.6842C37.0268 29.6842 68.2703 29.6842 73.74 29.6842C67.5369 34.9963 60.4212 41.263 53.8704 47.1028C54.1408 47.1028 6.3527 47.1038 1.28369 47.1028Z" fill="white"/>
<path d="M2.16445 47.9919C8.7373 42.133 15.355 36.3268 22.0174 30.5734L21.1351 30.9401H73.7399L72.8575 28.792C66.1691 34.5217 59.5632 40.3499 52.9879 46.2105C52.1574 46.9482 52.8322 48.3587 53.8703 48.3587C55.4731 48.3587 55.4757 45.8438 53.8703 45.8438H1.28362C-0.31971 45.8438 -0.322305 48.3587 1.28362 48.3587H51.9031C52.5208 48.3587 53.1654 48.411 53.7815 48.3587C53.8106 48.3587 53.8417 48.3587 53.8713 48.3587V45.8438L54.7537 47.9919C61.329 42.1312 67.9349 36.303 74.6233 30.5734C75.4709 29.8477 74.7624 28.4252 73.7409 28.4252H21.6692C21.2739 28.3756 20.8726 28.435 20.5081 28.5971C20.1099 28.8778 19.7363 29.1922 19.3911 29.537C13.0078 35.0323 6.67842 40.5907 0.402807 46.2121C-0.801899 47.2872 0.965971 49.0602 2.16445 47.9919Z" fill="#211715"/>
<path d="M37.5115 1.25745C32.4767 1.25745 27.4726 3.97035 25.1582 8.49553C22.2925 14.1016 23.7417 20.0031 26.6115 25.2178C29.3015 30.0059 32.409 34.5424 35.8972 38.7734L36.4163 39.4158C36.5485 39.5791 36.7151 39.7107 36.9039 39.801C37.0928 39.8914 37.2991 39.9383 37.5081 39.9383C37.7171 39.9383 37.9234 39.8914 38.1122 39.801C38.3011 39.7107 38.4676 39.5791 38.5999 39.4158L39.1189 38.7734C42.6072 34.5424 45.7147 30.0059 48.4047 25.2178C51.2761 20.0031 52.7252 14.1011 49.858 8.49553C47.5509 3.97035 42.5903 1.25745 37.5115 1.25745Z" fill="#3D8DCC"/>
<path d="M37.5115 3.59969e-05C30.551 0.0482375 24.1465 4.72012 22.6953 11.7319C21.066 19.6044 25.8038 26.9908 30.0855 33.1312C31.1915 34.7172 32.3475 36.267 33.5345 37.7916C34.0411 38.4427 34.5541 39.0889 35.0735 39.7301C35.4002 40.2126 35.8288 40.616 36.3286 40.9111C36.7219 41.1066 37.1566 41.202 37.5948 41.189C38.0331 41.1761 38.4615 41.0551 38.8428 40.8367C39.2916 40.5264 39.6802 40.1357 39.9894 39.684C41.161 38.2341 42.3017 36.76 43.4115 35.2616C45.7987 32.0904 47.9403 28.7383 49.8175 25.2351C51.5646 21.8935 52.8207 18.138 52.651 14.3164C52.5816 12.3087 52.1057 10.3367 51.2527 8.52165C50.3997 6.70665 49.1876 5.08714 47.691 3.7629C44.8384 1.34554 41.236 0.0150287 37.5115 0.00317785C35.9081 -0.00782467 35.9066 2.50704 37.5115 2.51804C40.2994 2.52832 43.0161 3.40836 45.2894 5.03762C47.6967 6.81776 49.3518 9.44748 49.9255 12.4036C50.5816 15.5854 49.8954 18.9003 48.6673 21.8547C47.3095 25.1204 45.3096 28.1743 43.3268 31.0816C42.3431 32.5245 41.3207 33.9391 40.2598 35.3255C39.7452 35.9992 39.2226 36.6667 38.6918 37.3279C38.3961 37.7404 38.0772 38.1354 37.7367 38.511C37.5146 38.7289 37.5198 38.731 37.3012 38.5288C37.0049 38.2103 36.7309 37.8713 36.4811 37.5144C35.4036 36.1721 34.3569 34.8055 33.3409 33.4147C31.2239 30.5352 29.2992 27.5166 27.5795 24.379C26.0057 21.4686 24.8286 18.2307 24.8519 14.877C24.8496 13.1407 25.2125 11.4237 25.9166 9.83947C26.6206 8.25528 27.6499 6.84002 28.9363 5.6873C31.3329 3.63799 34.3726 2.51445 37.5135 2.51699C39.1143 2.5039 39.1179 -0.0109665 37.5115 3.59969e-05Z" fill="#211715"/>
<path d="M37.5116 9.81904C36.8691 9.80611 36.2306 9.92383 35.6341 10.1652C35.0376 10.4065 34.4953 10.7665 34.0395 11.2238C33.5838 11.6811 33.2238 12.2263 32.9811 12.8269C32.7384 13.4275 32.6179 14.0713 32.6268 14.7199C32.6268 17.6759 34.6661 19.7119 37.5116 19.7119C40.467 19.7119 42.3968 17.657 42.3968 14.7199C42.4062 14.0711 42.2861 13.427 42.0435 12.8262C41.801 12.2253 41.441 11.6799 40.985 11.2225C40.5291 10.7651 39.9865 10.4051 39.3898 10.164C38.793 9.92284 38.1542 9.80553 37.5116 9.81904Z" fill="white"/>
<path d="M37.5116 8.56165C36.2098 8.55792 34.9406 8.97256 33.8879 9.74554C32.8352 10.5185 32.0535 11.6097 31.6562 12.861C31.2821 14.066 31.2709 15.356 31.6241 16.5673C31.9773 17.7787 32.6789 18.857 33.64 19.6653C34.652 20.4254 35.8597 20.875 37.1183 20.9603C38.377 21.0456 39.6333 20.763 40.7369 20.1463C42.9859 18.849 43.9213 16.1681 43.5481 13.6658C43.3036 12.2312 42.5627 10.9309 41.4572 9.99615C40.3518 9.06145 38.9536 8.55312 37.5116 8.56165C35.9077 8.54122 35.9072 11.0561 37.5116 11.0765C38.3567 11.0586 39.1819 11.3362 39.8473 11.8624C39.6672 11.722 39.976 11.9845 39.977 11.9855C40.0376 12.0418 40.0966 12.0998 40.154 12.1595C40.2402 12.2485 40.3232 12.3408 40.4016 12.4372C40.277 12.2847 40.4405 12.4896 40.467 12.5299C40.7146 12.8626 40.8961 13.2405 41.0016 13.6427C41.2174 14.4127 41.2109 15.2288 40.9829 15.9952C40.9549 16.0937 40.9241 16.1915 40.8906 16.2886C40.8843 16.3069 40.7276 16.6642 40.8361 16.4358C40.7528 16.6138 40.6594 16.7868 40.5563 16.954C40.3723 17.2597 40.1314 17.5266 39.8468 17.7399C40.0419 17.5743 39.7487 17.8064 39.7289 17.8195C39.6646 17.863 39.5987 17.9044 39.5322 17.9442C39.4284 18.0044 39.3246 18.0558 39.2208 18.1124C38.8964 18.2889 39.3407 18.0731 39.1346 18.1527C38.9239 18.2342 38.7078 18.3007 38.4879 18.3518C38.4054 18.3712 38.3223 18.3864 38.2398 18.4042C38.0886 18.4283 38.0713 18.4323 38.1879 18.4162C38.0997 18.4264 38.0114 18.4342 37.9232 18.4398C37.6977 18.4548 37.4716 18.4573 37.2458 18.4472C37.115 18.4409 36.9827 18.4325 36.8529 18.4152C36.9141 18.4236 37.0423 18.4571 36.801 18.4016C36.5773 18.3492 36.3562 18.3015 36.1377 18.2281C36.0416 18.1957 35.9446 18.1627 35.8517 18.1234C36.0593 18.2135 35.7022 18.0395 35.6622 18.0186C35.471 17.9162 35.2886 17.7981 35.1167 17.6655C35.2688 17.7854 34.9002 17.4559 34.8426 17.3946C34.5886 17.1257 34.3801 16.8165 34.2255 16.4793C34.0506 16.1544 34.2774 16.681 34.159 16.3268C34.1315 16.2477 34.103 16.1696 34.0781 16.0895C34.0007 15.8434 33.9421 15.5917 33.9026 15.3366C33.9115 15.3963 33.9156 15.5352 33.8974 15.2727C33.8881 15.1354 33.8777 14.9986 33.8746 14.8609C33.872 14.7482 33.8746 14.6361 33.8746 14.5234C33.8746 14.4763 33.9141 14.0587 33.885 14.2756C33.9724 13.3953 34.3856 12.5807 35.042 11.9944C35.1705 11.8599 35.3183 11.7456 35.4805 11.6555C35.5875 11.5879 35.6975 11.524 35.8096 11.4653C35.8226 11.4579 36.161 11.3029 35.9788 11.3778C36.224 11.2793 36.4772 11.2027 36.7356 11.1488C36.7226 11.1488 37.1555 11.0818 36.9432 11.1074C37.131 11.0875 37.3196 11.0776 37.5084 11.0776C39.1133 11.0561 39.118 8.5407 37.5116 8.56165Z" fill="#211715"/>
</svg>
